Coordinates
version=1
nRows=38
nColumns=12
inDegrees=yes

Units are S.I. units (second, meters, Newtons, ...)
Angles are in degrees

endheader
time	SC_y	SC_z	SC_x	AC_y	AC_z	AC_x	GH_y	GH_z	GH_yy	EL_x	PS_y
       0.0              -45.05          31.39          37.01          61.18           2.39          -12.5         -4.412          19.78          93.81          132.5          136.0
  0.002534              -45.05          31.39          37.01          61.17          2.391         -12.49         -4.408          19.79          93.79          132.5          136.0
  0.005068              -45.04          31.39          37.01          61.17          2.392         -12.49         -4.404           19.8          93.78          132.5          136.0
  0.007602              -45.04          31.39          37.02          61.16          2.393         -12.49           -4.4           19.8          93.76          132.5          136.0
   0.01014              -45.03           31.4          37.02          61.16          2.394         -12.49         -4.395          19.81          93.74          132.5          135.9
   0.01267              -45.02           31.4          37.02          61.16          2.396         -12.48          -4.39          19.81          93.72          132.5          135.9
    0.0152              -45.02           31.4          37.02          61.15          2.397         -12.48         -4.385          19.82           93.7          132.4          135.9
   0.01774              -45.01           31.4          37.03          61.15          2.399         -12.48          -4.38          19.83          93.68          132.4          135.9
   0.02027              -45.01           31.4          37.03          61.14            2.4         -12.47         -4.374          19.84          93.65          132.4          135.8
   0.02281               -45.0           31.4          37.04          61.13          2.402         -12.47         -4.368          19.85          93.63          132.4          135.8
   0.02534              -44.99           31.4          37.04          61.13          2.404         -12.47         -4.361          19.86           93.6          132.4          135.8
   0.02787              -44.98          31.41          37.04          61.12          2.406         -12.46         -4.353          19.87          93.57          132.4          135.7
   0.03041              -44.97          31.41          37.05          61.11          2.408         -12.46         -4.346          19.88          93.54          132.4          135.7
   0.03294              -44.96          31.41          37.05           61.1           2.41         -12.45         -4.337          19.89          93.51          132.4          135.7
   0.03548              -44.95          31.41          37.06           61.1          2.413         -12.45         -4.328           19.9          93.47          132.4          135.6
   0.03801              -44.94          31.42          37.07          61.09          2.416         -12.44         -4.318          19.92          93.43          132.4          135.6
   0.04054              -44.93          31.42          37.07          61.08          2.419         -12.43         -4.307          19.93          93.38          132.4          135.5
   0.04308              -44.91          31.42          37.08          61.07          2.422         -12.43         -4.295          19.95          93.34          132.3          135.5
   0.04561               -44.9          31.43          37.09          61.05          2.426         -12.42         -4.282          19.97          93.28          132.3          135.4
   0.04815              -44.88          31.43          37.09          61.04           2.43         -12.41         -4.268          19.99          93.23          132.3          135.3
   0.05068              -44.86          31.43           37.1          61.02          2.434          -12.4         -4.253          20.01          93.17          132.3          135.3
   0.05321              -44.84          31.44          37.11          61.01          2.439         -12.39         -4.236          20.04           93.1          132.3          135.2
   0.05575              -44.82          31.44          37.13          60.99          2.444         -12.38         -4.217          20.06          93.02          132.3          135.1
   0.05828              -44.79          31.45          37.14          60.97           2.45         -12.36         -4.196          20.09          92.94          132.2          135.0
   0.06082              -44.77          31.46          37.15          60.95          2.457         -12.35         -4.173          20.13          92.84          132.2          134.9
   0.06335              -44.74          31.46          37.17          60.92          2.464         -12.33         -4.147          20.16          92.74          132.2          134.8
   0.06588               -44.7          31.47          37.19           60.9          2.472         -12.32         -4.118          20.21          92.62          132.1          134.6
   0.06842              -44.66          31.48           37.2          60.87          2.481          -12.3         -4.085          20.25          92.49          132.1          134.5
   0.07095              -44.62          31.49          37.23          60.83          2.491         -12.27         -4.048          20.31          92.34          132.1          134.3
   0.07349              -44.57           31.5          37.25          60.79          2.503         -12.25         -4.006          20.37          92.17          132.0          134.1
   0.07602              -44.51          31.52          37.28          60.75          2.517         -12.22         -3.958          20.44          91.98          132.0          133.9
   0.07856              -44.45          31.53          37.31          60.69          2.532         -12.19         -3.903          20.51          91.76          131.9          133.6
   0.08109              -44.37          31.55          37.35          60.63           2.55         -12.15          -3.84          20.61           91.5          131.8          133.3
   0.08362              -44.28          31.57           37.4          60.56           2.57          -12.1         -3.766          20.71           91.2          131.7          133.0
   0.08616              -44.18          31.59          37.45          60.48          2.595         -12.05          -3.68          20.83          90.86          131.6          132.5
   0.08869              -44.06          31.62          37.51          60.39          2.623         -11.99         -3.579          20.98          90.45          131.5          132.1
   0.09123              -43.92          31.65          37.58          60.27          2.657         -11.91         -3.458          21.15          89.96          131.4          131.5
   0.09376              -43.75          31.69          37.67          60.13          2.698         -11.82         -3.313          21.36          89.38          131.2          130.8
